<svg width="1164" height="388" viewBox="0 0 1164 388" fill="none" xmlns="http://www.w3.org/2000/svg">
<path d="M740.797 48.116C753.428 53.8375 764.678 62.2397 773.776 72.7459C793.519 94.4043 804.239 122.858 803.726 152.235C804.12 174.964 797.749 197.292 785.432 216.354V216.897C777.813 228.872 767.39 238.785 755.077 245.768C742.763 252.751 728.935 256.591 714.803 256.952L762.661 348.395H702.915L654.671 257.418V208.979H707.161C718.757 207.469 729.406 201.756 737.111 192.911C747.375 182.046 752.929 167.527 752.549 152.545C752.696 145.261 751.408 138.019 748.758 131.237C746.109 124.456 742.15 118.269 737.111 113.034C732.587 107.773 726.976 103.569 720.67 100.713C714.364 97.8575 707.515 96.4195 700.6 96.4994H564.05V39.5997H700.6C714.453 39.4893 728.165 42.3946 740.797 48.116Z" fill="url(#paint0_linear_11098_27916)"/>
<path d="M540.275 266.966C555.707 250.866 564.243 229.322 564.05 206.961V148.276H615.844V206.961C616.725 244.108 603.026 280.109 577.712 307.176C566.185 320.146 552.066 330.522 536.276 337.627C520.487 344.731 503.385 348.403 486.087 348.403C468.79 348.403 451.687 344.731 435.898 337.627C420.109 330.522 405.989 320.146 394.462 307.176C369.486 279.924 355.961 244.014 356.716 206.961V39.5997H408.897V206.961C408.317 228.923 416.263 250.25 431.05 266.422C437.857 274.418 446.33 280.809 455.868 285.142C465.407 289.475 475.776 291.644 486.242 291.495C496.439 291.349 506.497 289.095 515.792 284.876C525.087 280.656 533.421 274.56 540.275 266.966Z" fill="url(#paint1_linear_11098_27916)"/>
<path d="M50.1152 348.395H107.699L128.772 302.751H71.0339L50.1152 348.395Z" fill="url(#paint2_linear_11098_27916)"/>
<path fill-rule="evenodd" clip-rule="evenodd" d="M85.2369 271.701L191.605 39.5997H219.857L361.502 348.395H303.146L268.02 271.701L85.2369 271.701ZM205.731 135.7L160.726 233.354H250.457L205.731 135.7Z" fill="url(#paint3_linear_11098_27916)"/>
<path d="M1094.58 302.751H1036.22L1057.14 348.395H1115.5L1094.58 302.751Z" fill="url(#paint4_linear_11098_27916)"/>
<path fill-rule="evenodd" clip-rule="evenodd" d="M945.525 39.5997H973.854L1080.38 271.701L897.045 271.701L861.696 348.395H804.112L945.525 39.5997ZM914.719 233.354H1004.46L959.728 135.7L914.719 233.354Z" fill="url(#paint5_linear_11098_27916)"/>
<defs>
<linearGradient id="paint0_linear_11098_27916" x1="50.1152" y1="39.5967" x2="1163.64" y2="247.699" gradientUnits="userSpaceOnUse">
<stop stop-color="#F7885C"/>
<stop offset="0.994792" stop-color="#F86363"/>
</linearGradient>
<linearGradient id="paint1_linear_11098_27916" x1="50.1152" y1="39.5967" x2="1163.64" y2="247.699" gradientUnits="userSpaceOnUse">
<stop stop-color="#F7885C"/>
<stop offset="0.994792" stop-color="#F86363"/>
</linearGradient>
<linearGradient id="paint2_linear_11098_27916" x1="50.1152" y1="39.5967" x2="1163.64" y2="247.699" gradientUnits="userSpaceOnUse">
<stop stop-color="#F7885C"/>
<stop offset="0.994792" stop-color="#F86363"/>
</linearGradient>
<linearGradient id="paint3_linear_11098_27916" x1="50.1152" y1="39.5967" x2="1163.64" y2="247.699" gradientUnits="userSpaceOnUse">
<stop stop-color="#F7885C"/>
<stop offset="0.994792" stop-color="#F86363"/>
</linearGradient>
<linearGradient id="paint4_linear_11098_27916" x1="50.1152" y1="39.5967" x2="1163.64" y2="247.699" gradientUnits="userSpaceOnUse">
<stop stop-color="#F7885C"/>
<stop offset="0.994792" stop-color="#F86363"/>
</linearGradient>
<linearGradient id="paint5_linear_11098_27916" x1="50.1152" y1="39.5967" x2="1163.64" y2="247.699" gradientUnits="userSpaceOnUse">
<stop stop-color="#F7885C"/>
<stop offset="0.994792" stop-color="#F86363"/>
</linearGradient>
</defs>
</svg>
